<mxfile host="app.diagrams.net" modified="2023-04-01T07:48:57.106Z" agent="Mozilla/5.0 (Macintosh; Intel Mac OS X 10_15_7) AppleWebKit/537.36 (KHTML, like Gecko) Chrome/112.0.0.0 Safari/537.36 Edg/112.0.1722.15" version="21.1.2" etag="O3Ll5Urj2cDAPe_kB660" type="github">
  <diagram name="第 1 页" id="ZQs92ldU1HahN9TC48GJ">
    <mxGraphModel>
      <root>
        <mxCell id="0" />
        <mxCell id="1" parent="0" />
      </root>
    </mxGraphModel>
  </diagram>
</mxfile>
